<svg width="1200" height="800" viewBox="0 0 1200 800" fill="none" xmlns="http://www.w3.org/2000/svg">
  <defs>
    <radialGradient id="bg" cx="0" cy="0" r="1" gradientUnits="userSpaceOnUse" gradientTransform="translate(600 400) rotate(90) scale(520 760)">
      <stop stop-color="#070A14"/>
      <stop offset="1" stop-color="#020617"/>
    </radialGradient>
    <linearGradient id="g1" x1="240" y1="140" x2="980" y2="690" gradientUnits="userSpaceOnUse">
      <stop stop-color="#22D3EE" stop-opacity="0.65"/>
      <stop offset="0.48" stop-color="#A855F7" stop-opacity="0.8"/>
      <stop offset="1" stop-color="#EC4899" stop-opacity="0.55"/>
    </linearGradient>
    <linearGradient id="g2" x1="260" y1="720" x2="980" y2="180" gradientUnits="userSpaceOnUse">
      <stop stop-color="#A855F7" stop-opacity="0.18"/>
      <stop offset="0.55" stop-color="#22D3EE" stop-opacity="0.22"/>
      <stop offset="1" stop-color="#EC4899" stop-opacity="0.18"/>
    </linearGradient>
    <filter id="blur" x="-40%" y="-40%" width="180%" height="180%" filterUnits="userSpaceOnUse">
      <feGaussianBlur stdDeviation="30"/>
    </filter>
    <filter id="glow" x="-40%" y="-40%" width="180%" height="180%" filterUnits="userSpaceOnUse">
      <feGaussianBlur stdDeviation="18" result="b"/>
      <feColorMatrix in="b" type="matrix" values="1 0 0 0 0  0 1 0 0 0  0 0 1 0 0  0 0 0 16 -5" result="c"/>
      <feMerge>
        <feMergeNode in="c"/>
        <feMergeNode in="SourceGraphic"/>
      </feMerge>
    </filter>
  </defs>

  <rect width="1200" height="800" fill="url(#bg)"/>

  <g filter="url(#blur)" opacity="0.95">
    <path d="M260 260C330 145 470 110 592 162C714 214 775 318 861 360C980 417 1060 500 1006 612C952 724 800 742 655 715C510 688 444 598 362 536C270 472 220 362 260 260Z" fill="url(#g1)"/>
    <path d="M352 681C312 639 330 550 410 504C490 458 597 458 700 430C833 394 918 335 980 401C1042 467 1020 574 924 640C828 706 694 732 580 724C472 717 400 723 352 681Z" fill="url(#g2)"/>
  </g>

  <g filter="url(#glow)" opacity="0.9">
    <path d="M312 282C312 250 338 224 370 224H830C862 224 888 250 888 282V608C888 640 862 666 830 666H370C338 666 312 640 312 608V282Z" fill="#0B1220" fill-opacity="0.38"/>
    <path d="M312 282C312 250 338 224 370 224H830C862 224 888 250 888 282V608C888 640 862 666 830 666H370C338 666 312 640 312 608V282Z" stroke="white" stroke-opacity="0.10"/>

    <path d="M414 350H786" stroke="white" stroke-opacity="0.10" stroke-width="10" stroke-linecap="round"/>
    <path d="M414 540H786" stroke="white" stroke-opacity="0.10" stroke-width="10" stroke-linecap="round"/>
    <path d="M414 445H640" stroke="white" stroke-opacity="0.10" stroke-width="10" stroke-linecap="round"/>
  </g>
</svg>
