<svg width="1200" height="800" viewBox="0 0 1200 800" fill="none" xmlns="http://www.w3.org/2000/svg">
  <defs>
    <radialGradient id="bg" cx="0" cy="0" r="1" gradientUnits="userSpaceOnUse" gradientTransform="translate(600 400) rotate(90) scale(500 740)">
      <stop stop-color="#080B16"/>
      <stop offset="1" stop-color="#020617"/>
    </radialGradient>
    <linearGradient id="g1" x1="200" y1="100" x2="1000" y2="700" gradientUnits="userSpaceOnUse">
      <stop stop-color="#D946EF" stop-opacity="0.8"/>
      <stop offset="0.5" stop-color="#7B25EB" stop-opacity="0.65"/>
      <stop offset="1" stop-color="#EC4899" stop-opacity="0.5"/>
    </linearGradient>
    <linearGradient id="g2" x1="350" y1="700" x2="900" y2="150" gradientUnits="userSpaceOnUse">
      <stop stop-color="#EC4899" stop-opacity="0.2"/>
      <stop offset="0.5" stop-color="#D946EF" stop-opacity="0.18"/>
      <stop offset="1" stop-color="#7B25EB" stop-opacity="0.12"/>
    </linearGradient>
    <linearGradient id="card" x1="0" y1="0" x2="0" y2="1">
      <stop stop-color="#D946EF" stop-opacity="0.5"/>
      <stop offset="1" stop-color="#7B25EB" stop-opacity="0.35"/>
    </linearGradient>
    <filter id="blur" x="-40%" y="-40%" width="180%" height="180%" filterUnits="userSpaceOnUse">
      <feGaussianBlur stdDeviation="35"/>
    </filter>
    <filter id="glow" x="-40%" y="-40%" width="180%" height="180%" filterUnits="userSpaceOnUse">
      <feGaussianBlur stdDeviation="14" result="b"/>
      <feColorMatrix in="b" type="matrix" values="1 0 0 0 0  0 1 0 0 0  0 0 1 0 0  0 0 0 14 -4" result="c"/>
      <feMerge>
        <feMergeNode in="c"/>
        <feMergeNode in="SourceGraphic"/>
      </feMerge>
    </filter>
  </defs>

  <rect width="1200" height="800" fill="url(#bg)"/>

  <!-- Ambient blobs -->
  <g filter="url(#blur)" opacity="0.85">
    <ellipse cx="400" cy="340" rx="300" ry="250" fill="url(#g1)"/>
    <ellipse cx="820" cy="480" rx="260" ry="220" fill="url(#g2)"/>
  </g>

  <!-- Abstract shopping / e-commerce visualization -->
  <g filter="url(#glow)" opacity="0.88">
    <!-- Stacked product cards -->
    <rect x="340" y="220" width="280" height="360" rx="20" fill="#0B1220" fill-opacity="0.5" stroke="white" stroke-opacity="0.08"/>
    <rect x="355" y="240" width="250" height="160" rx="12" fill="url(#card)" opacity="0.3"/>
    <!-- Price line -->
    <rect x="370" y="420" width="100" height="12" rx="6" fill="white" fill-opacity="0.15"/>
    <rect x="370" y="445" width="150" height="8" rx="4" fill="white" fill-opacity="0.08"/>
    <!-- Button -->
    <rect x="370" y="480" width="120" height="36" rx="18" fill="#D946EF" fill-opacity="0.5" stroke="#D946EF" stroke-opacity="0.5"/>
    <rect x="395" y="493" width="70" height="10" rx="5" fill="white" fill-opacity="0.5"/>

    <!-- Second card offset -->
    <rect x="660" y="260" width="240" height="300" rx="20" fill="#0B1220" fill-opacity="0.4" stroke="white" stroke-opacity="0.06"/>
    <rect x="675" y="278" width="210" height="130" rx="12" fill="url(#card)" opacity="0.25"/>
    <rect x="690" y="428" width="80" height="10" rx="5" fill="white" fill-opacity="0.12"/>
    <rect x="690" y="448" width="130" height="7" rx="3.5" fill="white" fill-opacity="0.07"/>
    <rect x="690" y="478" width="100" height="32" rx="16" fill="#EC4899" fill-opacity="0.4" stroke="#EC4899" stroke-opacity="0.4"/>
    <rect x="712" y="489" width="56" height="9" rx="4.5" fill="white" fill-opacity="0.45"/>

    <!-- Floating conversion sparkles -->
    <circle cx="560" cy="200" r="4" fill="#D946EF" opacity="0.6"/>
    <circle cx="640" cy="180" r="3" fill="#EC4899" opacity="0.5"/>
    <circle cx="500" cy="170" r="3.5" fill="#7B25EB" opacity="0.55"/>
    <circle cx="780" cy="220" r="3" fill="#22D3EE" opacity="0.45"/>

    <!-- Arrow / flow between cards -->
    <path d="M625 400 Q645 400 660 400" stroke="white" stroke-opacity="0.12" stroke-width="2" fill="none" stroke-linecap="round" marker-end="url(#arrowhead)"/>
  </g>
</svg>
