<svg width="1200" height="800" viewBox="0 0 1200 800" fill="none" xmlns="http://www.w3.org/2000/svg">
  <defs>
    <radialGradient id="bg" cx="0" cy="0" r="1" gradientUnits="userSpaceOnUse" gradientTransform="translate(600 400) rotate(90) scale(500 740)">
      <stop stop-color="#080B16"/>
      <stop offset="1" stop-color="#020617"/>
    </radialGradient>
    <linearGradient id="g1" x1="180" y1="100" x2="1020" y2="700" gradientUnits="userSpaceOnUse">
      <stop stop-color="#7B25EB" stop-opacity="0.9"/>
      <stop offset="0.5" stop-color="#667EEA" stop-opacity="0.7"/>
      <stop offset="1" stop-color="#22D3EE" stop-opacity="0.5"/>
    </linearGradient>
    <linearGradient id="g2" x1="400" y1="700" x2="900" y2="150" gradientUnits="userSpaceOnUse">
      <stop stop-color="#22D3EE" stop-opacity="0.2"/>
      <stop offset="0.5" stop-color="#7B25EB" stop-opacity="0.25"/>
      <stop offset="1" stop-color="#667EEA" stop-opacity="0.15"/>
    </linearGradient>
    <linearGradient id="bar1" x1="0" y1="0" x2="0" y2="1">
      <stop stop-color="#7B25EB" stop-opacity="0.85"/>
      <stop offset="1" stop-color="#667EEA" stop-opacity="0.6"/>
    </linearGradient>
    <filter id="blur" x="-40%" y="-40%" width="180%" height="180%" filterUnits="userSpaceOnUse">
      <feGaussianBlur stdDeviation="35"/>
    </filter>
    <filter id="glow" x="-40%" y="-40%" width="180%" height="180%" filterUnits="userSpaceOnUse">
      <feGaussianBlur stdDeviation="14" result="b"/>
      <feColorMatrix in="b" type="matrix" values="1 0 0 0 0  0 1 0 0 0  0 0 1 0 0  0 0 0 14 -4" result="c"/>
      <feMerge>
        <feMergeNode in="c"/>
        <feMergeNode in="SourceGraphic"/>
      </feMerge>
    </filter>
  </defs>

  <rect width="1200" height="800" fill="url(#bg)"/>

  <!-- Ambient blobs -->
  <g filter="url(#blur)" opacity="0.9">
    <ellipse cx="350" cy="320" rx="320" ry="260" fill="url(#g1)"/>
    <ellipse cx="850" cy="520" rx="280" ry="220" fill="url(#g2)"/>
  </g>

  <!-- Abstract chart / financial grid -->
  <g filter="url(#glow)" opacity="0.85">
    <!-- Grid panel -->
    <rect x="280" y="200" width="640" height="400" rx="24" fill="#0B1220" fill-opacity="0.45" stroke="white" stroke-opacity="0.08"/>

    <!-- Horizontal grid lines -->
    <line x1="310" y1="300" x2="890" y2="300" stroke="white" stroke-opacity="0.06" stroke-width="1"/>
    <line x1="310" y1="400" x2="890" y2="400" stroke="white" stroke-opacity="0.06" stroke-width="1"/>
    <line x1="310" y1="500" x2="890" y2="500" stroke="white" stroke-opacity="0.06" stroke-width="1"/>

    <!-- Rising bars -->
    <rect x="370" y="420" width="50" height="150" rx="6" fill="url(#bar1)" opacity="0.7"/>
    <rect x="460" y="360" width="50" height="210" rx="6" fill="url(#bar1)" opacity="0.75"/>
    <rect x="550" y="310" width="50" height="260" rx="6" fill="url(#bar1)" opacity="0.8"/>
    <rect x="640" y="280" width="50" height="290" rx="6" fill="url(#bar1)" opacity="0.85"/>
    <rect x="730" y="240" width="50" height="330" rx="6" fill="url(#bar1)" opacity="0.9"/>

    <!-- Trend line -->
    <polyline points="395,410 485,350 575,300 665,270 755,230" stroke="#22D3EE" stroke-opacity="0.6" stroke-width="3" fill="none" stroke-linecap="round" stroke-linejoin="round"/>

    <!-- Glow dots at peaks -->
    <circle cx="395" cy="410" r="5" fill="#22D3EE" opacity="0.8"/>
    <circle cx="485" cy="350" r="5" fill="#22D3EE" opacity="0.8"/>
    <circle cx="575" cy="300" r="5" fill="#22D3EE" opacity="0.8"/>
    <circle cx="665" cy="270" r="5" fill="#22D3EE" opacity="0.8"/>
    <circle cx="755" cy="230" r="6" fill="#22D3EE" opacity="0.9"/>
  </g>
</svg>
