<svg width="1200" height="800" viewBox="0 0 1200 800" fill="none" xmlns="http://www.w3.org/2000/svg">
  <defs>
    <radialGradient id="bg" cx="0" cy="0" r="1" gradientUnits="userSpaceOnUse" gradientTransform="translate(600 400) rotate(90) scale(500 740)">
      <stop stop-color="#080B16"/>
      <stop offset="1" stop-color="#020617"/>
    </radialGradient>
    <linearGradient id="g1" x1="150" y1="150" x2="1050" y2="650" gradientUnits="userSpaceOnUse">
      <stop stop-color="#F97316" stop-opacity="0.7"/>
      <stop offset="0.5" stop-color="#7B25EB" stop-opacity="0.6"/>
      <stop offset="1" stop-color="#22D3EE" stop-opacity="0.5"/>
    </linearGradient>
    <linearGradient id="g2" x1="400" y1="650" x2="950" y2="100" gradientUnits="userSpaceOnUse">
      <stop stop-color="#7B25EB" stop-opacity="0.18"/>
      <stop offset="0.6" stop-color="#F97316" stop-opacity="0.15"/>
      <stop offset="1" stop-color="#22D3EE" stop-opacity="0.12"/>
    </linearGradient>
    <linearGradient id="route" x1="0" y1="0" x2="1" y2="1">
      <stop stop-color="#F97316" stop-opacity="0.8"/>
      <stop offset="1" stop-color="#22D3EE" stop-opacity="0.6"/>
    </linearGradient>
    <filter id="blur" x="-40%" y="-40%" width="180%" height="180%" filterUnits="userSpaceOnUse">
      <feGaussianBlur stdDeviation="35"/>
    </filter>
    <filter id="glow" x="-40%" y="-40%" width="180%" height="180%" filterUnits="userSpaceOnUse">
      <feGaussianBlur stdDeviation="14" result="b"/>
      <feColorMatrix in="b" type="matrix" values="1 0 0 0 0  0 1 0 0 0  0 0 1 0 0  0 0 0 14 -4" result="c"/>
      <feMerge>
        <feMergeNode in="c"/>
        <feMergeNode in="SourceGraphic"/>
      </feMerge>
    </filter>
  </defs>

  <rect width="1200" height="800" fill="url(#bg)"/>

  <!-- Ambient blobs -->
  <g filter="url(#blur)" opacity="0.85">
    <ellipse cx="380" cy="300" rx="300" ry="240" fill="url(#g1)"/>
    <ellipse cx="820" cy="520" rx="280" ry="220" fill="url(#g2)"/>
  </g>

  <!-- Abstract supply chain network / globe -->
  <g filter="url(#glow)" opacity="0.88">
    <!-- Globe outline -->
    <circle cx="600" cy="400" r="200" fill="#0B1220" fill-opacity="0.35" stroke="white" stroke-opacity="0.08"/>
    <ellipse cx="600" cy="400" rx="200" ry="80" fill="none" stroke="white" stroke-opacity="0.06" stroke-width="1"/>
    <ellipse cx="600" cy="400" rx="80" ry="200" fill="none" stroke="white" stroke-opacity="0.06" stroke-width="1"/>
    <line x1="400" y1="400" x2="800" y2="400" stroke="white" stroke-opacity="0.06" stroke-width="1"/>
    <line x1="600" y1="200" x2="600" y2="600" stroke="white" stroke-opacity="0.06" stroke-width="1"/>

    <!-- Network nodes (cities) -->
    <circle cx="480" cy="310" r="10" fill="#F97316" opacity="0.8"/>
    <circle cx="700" cy="340" r="8" fill="#22D3EE" opacity="0.7"/>
    <circle cx="550" cy="480" r="9" fill="#7B25EB" opacity="0.75"/>
    <circle cx="750" cy="450" r="7" fill="#F97316" opacity="0.65"/>
    <circle cx="450" cy="420" r="6" fill="#22D3EE" opacity="0.6"/>
    <circle cx="660" cy="280" r="7" fill="#7B25EB" opacity="0.6"/>

    <!-- Route connections -->
    <path d="M480 310 Q590 260 700 340" stroke="url(#route)" stroke-width="2" fill="none" stroke-linecap="round" opacity="0.6"/>
    <path d="M700 340 Q740 400 750 450" stroke="url(#route)" stroke-width="2" fill="none" stroke-linecap="round" opacity="0.5"/>
    <path d="M480 310 Q440 370 450 420" stroke="url(#route)" stroke-width="2" fill="none" stroke-linecap="round" opacity="0.5"/>
    <path d="M450 420 Q500 460 550 480" stroke="url(#route)" stroke-width="2" fill="none" stroke-linecap="round" opacity="0.5"/>
    <path d="M550 480 Q650 480 750 450" stroke="url(#route)" stroke-width="2" fill="none" stroke-linecap="round" opacity="0.5"/>
    <path d="M660 280 Q680 310 700 340" stroke="url(#route)" stroke-width="1.5" fill="none" stroke-linecap="round" opacity="0.4"/>

    <!-- Animated pulse rings around main node -->
    <circle cx="480" cy="310" r="20" fill="none" stroke="#F97316" stroke-opacity="0.3" stroke-width="1"/>
    <circle cx="480" cy="310" r="32" fill="none" stroke="#F97316" stroke-opacity="0.15" stroke-width="1"/>
  </g>
</svg>
