<svg width="1200" height="800" viewBox="0 0 1200 800" fill="none" xmlns="http://www.w3.org/2000/svg">
  <defs>
    <radialGradient id="bg" cx="0" cy="0" r="1" gradientUnits="userSpaceOnUse" gradientTransform="translate(600 400) rotate(90) scale(500 740)">
      <stop stop-color="#080B16"/>
      <stop offset="1" stop-color="#020617"/>
    </radialGradient>
    <linearGradient id="g1" x1="200" y1="120" x2="1000" y2="680" gradientUnits="userSpaceOnUse">
      <stop stop-color="#06B6D4" stop-opacity="0.8"/>
      <stop offset="0.5" stop-color="#7B25EB" stop-opacity="0.6"/>
      <stop offset="1" stop-color="#22D3EE" stop-opacity="0.45"/>
    </linearGradient>
    <linearGradient id="g2" x1="350" y1="680" x2="950" y2="200" gradientUnits="userSpaceOnUse">
      <stop stop-color="#7B25EB" stop-opacity="0.2"/>
      <stop offset="0.6" stop-color="#06B6D4" stop-opacity="0.18"/>
      <stop offset="1" stop-color="#10B981" stop-opacity="0.12"/>
    </linearGradient>
    <linearGradient id="pulse" x1="0" y1="0" x2="1" y2="0">
      <stop stop-color="#06B6D4" stop-opacity="0.8"/>
      <stop offset="1" stop-color="#22D3EE" stop-opacity="0.6"/>
    </linearGradient>
    <filter id="blur" x="-40%" y="-40%" width="180%" height="180%" filterUnits="userSpaceOnUse">
      <feGaussianBlur stdDeviation="35"/>
    </filter>
    <filter id="glow" x="-40%" y="-40%" width="180%" height="180%" filterUnits="userSpaceOnUse">
      <feGaussianBlur stdDeviation="14" result="b"/>
      <feColorMatrix in="b" type="matrix" values="1 0 0 0 0  0 1 0 0 0  0 0 1 0 0  0 0 0 14 -4" result="c"/>
      <feMerge>
        <feMergeNode in="c"/>
        <feMergeNode in="SourceGraphic"/>
      </feMerge>
    </filter>
  </defs>

  <rect width="1200" height="800" fill="url(#bg)"/>

  <!-- Ambient blobs -->
  <g filter="url(#blur)" opacity="0.85">
    <ellipse cx="420" cy="350" rx="300" ry="250" fill="url(#g1)"/>
    <ellipse cx="800" cy="500" rx="260" ry="200" fill="url(#g2)"/>
  </g>

  <!-- Abstract heartbeat / medical data visualization -->
  <g filter="url(#glow)" opacity="0.88">
    <!-- Central circle / shield shape -->
    <circle cx="600" cy="380" r="160" fill="#0B1220" fill-opacity="0.45" stroke="white" stroke-opacity="0.08"/>
    <circle cx="600" cy="380" r="120" fill="none" stroke="#06B6D4" stroke-opacity="0.15" stroke-width="1" stroke-dasharray="8 6"/>
    <circle cx="600" cy="380" r="80" fill="none" stroke="#7B25EB" stroke-opacity="0.12" stroke-width="1" stroke-dasharray="4 8"/>

    <!-- Cross symbol -->
    <rect x="575" y="330" width="50" height="100" rx="8" fill="#06B6D4" fill-opacity="0.3" stroke="#06B6D4" stroke-opacity="0.4" stroke-width="1"/>
    <rect x="550" y="355" width="100" height="50" rx="8" fill="#06B6D4" fill-opacity="0.3" stroke="#06B6D4" stroke-opacity="0.4" stroke-width="1"/>

    <!-- Heartbeat line -->
    <polyline points="200,540 340,540 380,540 420,540 450,480 470,600 490,400 510,580 530,540 900,540" stroke="url(#pulse)" stroke-width="3" fill="none" stroke-linecap="round" stroke-linejoin="round"/>

    <!-- Data nodes orbiting -->
    <circle cx="460" cy="270" r="8" fill="#7B25EB" opacity="0.7"/>
    <circle cx="740" cy="290" r="6" fill="#22D3EE" opacity="0.6"/>
    <circle cx="720" cy="480" r="7" fill="#06B6D4" opacity="0.65"/>
    <circle cx="480" cy="490" r="5" fill="#7B25EB" opacity="0.55"/>

    <!-- Connecting lines to center -->
    <line x1="460" y1="270" x2="580" y2="350" stroke="white" stroke-opacity="0.08" stroke-width="1"/>
    <line x1="740" y1="290" x2="640" y2="350" stroke="white" stroke-opacity="0.08" stroke-width="1"/>
    <line x1="720" y1="480" x2="640" y2="410" stroke="white" stroke-opacity="0.08" stroke-width="1"/>
    <line x1="480" y1="490" x2="580" y2="410" stroke="white" stroke-opacity="0.08" stroke-width="1"/>
  </g>
</svg>
