<svg width="784" height="475" viewBox="0 0 784 475" fill="none" xmlns="http://www.w3.org/2000/svg">
<mask id="mask0_5860_53967" style="mask-type:alpha" maskUnits="userSpaceOnUse" x="186" y="0" width="948" height="471">
<path d="M1133.25 205.641C1076.67 310.282 1000.66 384.782 902.71 428.458C804.629 472.107 698.178 482.802 581.353 457.437C464.528 432.072 374.525 378.722 303.504 298.358C232.483 217.994 194.09 118.656 186.124 0.000410566L1133.25 205.641Z" fill="#25B8CB"/>
</mask>
<g mask="url(#mask0_5860_53967)">
<rect x="-8.00195" y="-19.9961" width="792" height="533" fill="#3B3560"/>
</g>
<path d="M3.00002 296.422L114.935 147.743C135.658 120.217 163.129 104.246 196.319 99.085C229.993 94.3171 260.401 102.555 288.43 123.656C316.458 144.757 332.248 171.3 336.981 205.012C341.709 238.692 333.44 269.119 312.703 296.663L200.782 445.325L3.00002 296.422Z" stroke="#181144" stroke-width="2" stroke-miterlimit="10"/>
<path d="M3.00002 296.422L114.935 147.743C135.658 120.217 163.129 104.246 196.319 99.085C229.993 94.3171 260.401 102.555 288.43 123.656C316.458 144.757 332.248 171.3 336.981 205.012C341.709 238.692 333.44 269.119 312.703 296.663L200.782 445.325L3.00002 296.422Z" stroke="white" stroke-width="2" stroke-miterlimit="10"/>
<path d="M92.0159 175.947C89.7584 174.122 88.4205 171.752 88.1113 168.828C87.8021 165.904 88.609 163.252 90.4348 160.995C92.3246 158.785 94.7649 157.468 97.8313 157.143C100.898 156.819 103.499 157.604 105.807 159.368C108.123 161.188 109.407 163.562 109.722 166.541C110.037 169.52 109.273 172.057 107.388 174.32C105.506 176.582 103.058 177.847 100.052 178.165C97.0461 178.483 94.3297 177.766 92.0137 175.945L92.0159 175.947Z" fill="#C84AF7" stroke="#C84AF7" stroke-width="0.5" stroke-miterlimit="10"/>
</svg>
